<svg id="v2" xmlns="http://www.w3.org/2000/svg" viewBox="0 0 334.97 77.55"><defs><style>.cls-1{fill:#d91a2a;}</style></defs><title>RapScraps_Bar</title><path class="cls-1" d="M2.49,17.43c.1,0,0-.06.15-.08a1.64,1.64,0,0,0-1.36.81c-.14.26-.14.35-.12.34s.25-.38.23-.35a1.73,1.73,0,0,1,.77-.6Z" transform="translate(-1.14 -6.66)"/><polygon class="cls-1" points="0.8 31.15 0.75 30.81 0.94 33.65 0.8 31.15"/><path class="cls-1" d="M2.28,45.58l-.19-1.45c.15,3.91.42,9,.46,11.76.12-1.72-.25-6.55-.29-9.77Z" transform="translate(-1.14 -6.66)"/><path class="cls-1" d="M2.42,63.7l.06,1.84c0-.6.13,2.08-.05-2.25Z" transform="translate(-1.14 -6.66)"/><path class="cls-1" d="M2.42,63.7c-.07-1.9,0,1.25,0,0Z" transform="translate(-1.14 -6.66)"/><path class="cls-1" d="M2.59,71.92c.12,2.57.14,2,.16.58L2.61,70C2.58,70.52,2.65,72.75,2.59,71.92Z" transform="translate(-1.14 -6.66)"/><path class="cls-1" d="M3,74.87l-.07-1.3A9.15,9.15,0,0,0,3,74.87Z" transform="translate(-1.14 -6.66)"/><path class="cls-1" d="M2.83,72.31c.06.22,0-.32-.08-1.49l.15,2.75A3.85,3.85,0,0,0,2.83,72.31Z" transform="translate(-1.14 -6.66)"/><path class="cls-1" d="M2.72,69.26c0-1.41,0-3.23.1-.71C2.64,63.75,2.53,64.46,2.72,69.26Z" transform="translate(-1.14 -6.66)"/><path class="cls-1" d="M2.75,54.93,2.63,53.3c.06.81.07,3.63.12,3.51Z" transform="translate(-1.14 -6.66)"/><path class="cls-1" d="M8.82,84.21a8.73,8.73,0,0,0-1-.12l-1.85.11C6.88,84.2,8.69,84.16,8.82,84.21Z" transform="translate(-1.14 -6.66)"/><path class="cls-1" d="M7.78,84.1l2.77-.16C8.08,84,7.62,84.06,7.78,84.1Z" transform="translate(-1.14 -6.66)"/><polygon class="cls-1" points="1.74 64.1 2.06 69.53 2.03 68.65 1.74 64.1"/><polygon class="cls-1" points="16.69 77.34 19.49 77.12 18.26 77.2 16.69 77.34"/><path class="cls-1" d="M26.8,83.77c1.91-.08,3.53-.19,5-.3-1.56.08-3.22.13-5.37.14C25.27,83.73,28,83.69,26.8,83.77Z" transform="translate(-1.14 -6.66)"/><path class="cls-1" d="M34.26,83.31l-2.46.16C32.62,83.43,33.44,83.38,34.26,83.31Z" transform="translate(-1.14 -6.66)"/><path class="cls-1" d="M15.28,83.8a19.57,19.57,0,0,0,2.19,0l-1.09-.07Z" transform="translate(-1.14 -6.66)"/><path class="cls-1" d="M16.33,83.76h0l2.36-.07Z" transform="translate(-1.14 -6.66)"/><path class="cls-1" d="M15,83.81h.27A1,1,0,0,0,15,83.81Z" transform="translate(-1.14 -6.66)"/><path class="cls-1" d="M3.49,83.19l0-.06Z" transform="translate(-1.14 -6.66)"/><path class="cls-1" d="M3.46,83.14a1.46,1.46,0,0,1-.15-.55A1.25,1.25,0,0,0,3.46,83.14Z" transform="translate(-1.14 -6.66)"/><path class="cls-1" d="M3.58,83.33l-.09-.14Z" transform="translate(-1.14 -6.66)"/><path class="cls-1" d="M5,83.8a4.19,4.19,0,0,1-.5,0s0,0,0,.06,0,0-.29,0a1.31,1.31,0,0,1-.5-.31,1.36,1.36,0,0,0,.88.43,2.6,2.6,0,0,0,.43,0l.34,0,.58,0C6.62,83.83,6.65,83.79,5,83.8Z" transform="translate(-1.14 -6.66)"/><polygon class="cls-1" points="2.6 76.87 2.61 76.88 2.6 76.87 2.6 76.87"/><path class="cls-1" d="M3.64,83.42l-.06-.08Z" transform="translate(-1.14 -6.66)"/><path class="cls-1" d="M3.75,83.53l-.1-.12Z" transform="translate(-1.14 -6.66)"/><path class="cls-1" d="M10.48,83.9l3.16-.18-2.95.07C10.76,83.82,11.29,83.84,10.48,83.9Z" transform="translate(-1.14 -6.66)"/><polygon class="cls-1" points="12.5 77.06 13.59 77.03 13.94 76.98 12.5 77.06"/><path class="cls-1" d="M29.21,83.38c1.27-.09,2.66-.14,4.23-.2l-5.08.14C28.13,83.36,27.4,83.44,29.21,83.38Z" transform="translate(-1.14 -6.66)"/><path class="cls-1" d="M22.95,83.56l.28,0C23.06,83.54,22.92,83.54,22.95,83.56Z" transform="translate(-1.14 -6.66)"/><path class="cls-1" d="M48.91,82.67h-.25l-.06,0Z" transform="translate(-1.14 -6.66)"/><path class="cls-1" d="M28.08,83.31c-1.27,0-2,.07-2.74.13l3-.12C28.47,83.3,28.49,83.29,28.08,83.31Z" transform="translate(-1.14 -6.66)"/><path class="cls-1" d="M38.57,83.12H36.38C37,83.14,38.34,83.15,38.57,83.12Z" transform="translate(-1.14 -6.66)"/><path class="cls-1" d="M23.66,83.56h-.19C23.89,83.58,23.83,83.57,23.66,83.56Z" transform="translate(-1.14 -6.66)"/><path class="cls-1" d="M23.66,83.56l1.68-.12-2.1.11Z" transform="translate(-1.14 -6.66)"/><path class="cls-1" d="M43.12,82.83l-1.2.05c1.37,0,2.34,0,4.15,0a21.55,21.55,0,0,0,2.54-.2l-5.9.18Z" transform="translate(-1.14 -6.66)"/><path class="cls-1" d="M38.59,82.72c-3.51.12-2.46.17-4.56.29,5.67-.21-1.63.11,2.47,0l-3.06.13,2.93,0h-.15c-.24,0-.33,0,0,0h.12l.25,0c1.64,0,.26,0-.25,0l-.07,0h0l5.68-.25-5.38.18C37.48,82.92,40.35,82.78,38.59,82.72Z" transform="translate(-1.14 -6.66)"/><path class="cls-1" d="M8,83.47c.18,0,.17,0,.18,0C8.58,83.46,8.72,83.45,8,83.47Z" transform="translate(-1.14 -6.66)"/><path class="cls-1" d="M13,83.6l.17,0C13.24,83.62,13.16,83.61,13,83.6Z" transform="translate(-1.14 -6.66)"/><path class="cls-1" d="M7.92,83.63l.4,0c1.8,0,4,0,4.66,0-.61-.06-1.22-.11-2.62-.15-.41,0-.76.08-2.1.12-1.17,0,0-.05-.06-.09C7.4,83.54,5.38,83.66,7.92,83.63Z" transform="translate(-1.14 -6.66)"/><path class="cls-1" d="M28.35,83H25.94l.12.05c-2.69.07-2.11.12-2.44.17Z" transform="translate(-1.14 -6.66)"/><polygon class="cls-1" points="47.69 76.18 50.42 75.92 48.31 76.04 47.69 76.18"/><polygon class="cls-1" points="54.23 75.93 55.86 75.82 54.46 75.82 54.23 75.93"/><path class="cls-1" d="M210.6,77.46l-.63-.09c-1.41.07-2.5.09-3.42.1A33.53,33.53,0,0,0,210.6,77.46Z" transform="translate(-1.14 -6.66)"/><path class="cls-1" d="M118.55,80.36c1.75,0,3.14,0,4.36-.08C120.81,80.29,119.11,80.25,118.55,80.36Z" transform="translate(-1.14 -6.66)"/><path class="cls-1" d="M334.39,9.56a6.24,6.24,0,0,0-.11-1.19C334.33,9.25,334.37,9.74,334.39,9.56Z" transform="translate(-1.14 -6.66)"/><path class="cls-1" d="M128,80.11H127l-4.12.16C124.47,80.27,126.25,80.24,128,80.11Z" transform="translate(-1.14 -6.66)"/><path class="cls-1" d="M21.91,16.95,19.53,17Z" transform="translate(-1.14 -6.66)"/><path class="cls-1" d="M80.34,81.71c-1.3.05-.21,0,0,0Z" transform="translate(-1.14 -6.66)"/><path class="cls-1" d="M74.5,81.42a3.13,3.13,0,0,1-.52.07A2.15,2.15,0,0,0,74.5,81.42Z" transform="translate(-1.14 -6.66)"/><path class="cls-1" d="M78.37,81.73l1.67,0Z" transform="translate(-1.14 -6.66)"/><path class="cls-1" d="M78.64,81.77l-1.14,0C77.33,81.82,77.48,81.83,78.64,81.77Z" transform="translate(-1.14 -6.66)"/><path class="cls-1" d="M80.34,81.71l1.82-.07L80,81.71Z" transform="translate(-1.14 -6.66)"/><path class="cls-1" d="M336.09,70.5,336,68.32l0,.09c-.11-7.49-.17-3.23-.26-10.62l-.11.41c-.28-.68-.06-6.55-.31-10.83l0,1.55c-.17-2.34.13-6.55.09-8.9a10.26,10.26,0,0,1,.1,1.52c-.05-6.16-.18-.79-.37-5.37.06-.85.25,1.08.17-2,0-1.54-.57-8.94-.55-13.16,0,.93-.07,1.85-.19-.27-.13-3.26,0-8.83-.35-11.77a2.66,2.66,0,0,1,0-.59,3.51,3.51,0,0,0-.06-.6,1.5,1.5,0,0,0-.42-.71,1.47,1.47,0,0,0-.8-.39,5.09,5.09,0,0,0-.74,0l-2.83.13c-1.9.09-3.68.19-4.43.27-2.32-.34-15.5.72-15.46.33l-7.67.28.2,0c-4.91.14-6.64.29-8.36.44-1.13,0-.31-.05-.21-.07-7.17.16-7.88.2-13.88.59L279,8.5c-1.63.13-10.37.15-17.39.53a4.89,4.89,0,0,1,.77-.08c-7.9.41-18.95.28-21.83.83l-5.22.28c6.75-.19-1,.23,1.78.21-2.65.11-6.87.09-3.61,0H234c1.19-.27-8.39.2-8.22,0l-38.69,1.15,1.44.14-4.34.13c-1.14,0-1.53-.09,1.56-.19-.82,0-2.11,0-3.22.12s-2,.16-2.06.19c-6.07.13,2.36-.29.5-.23l-2.52.1H179c-2,.14-2.22.23-5.95.34-2.36,0-1.21-.07-2.14,0h-.29l-1.13,0-5.47.17,2.19.07c-2.42.15-5.14.16-2.61.24-3.71-.13-20.41.59-22.68.58-3.39.22-6.74.33-10.9.45,1,0,1.66.14-1.93.24,1.3-.38-6.56.07-9.46-.07,2.59.07-10.18.38-6.11.47-3,.07-.19-.12-2.46-.12-7.11.37-15.68.44-24.47.77-.14,0,1.34.07-.54.19l-4.65-.07a35.33,35.33,0,0,1-4.77.26c.45,0,1.12.06,0,.11-17.23.36-35.18,1.34-52.69,1.52,2.37,0,.79.07-1,.13,1.18,0,0,.11.21.16l-7.33.08c-1.33.21-7.85.27-8.61.46l2.32-.11c-1.69.16-.22.23,1.38.29l-7.22.24a1,1,0,0,0-1,1l1,30.1L3.8,82.57a1,1,0,0,0,1,1l33.25-1.1,3.39-.11-.45,0,.11.05c1.52-.05,2.64-.12,1.74-.12l4.07-.14c-2.49.17-.68.42,1.72.52.09,0,.08-.09,3-.24-1,0-6.46.09-4-.08,3.85-.18,3.16-.07,5-.08-1.42-.06,3.52-.28,4.07-.44L80.15,81c-.14,0-.12,0,.17,0L82.5,81c2,0-4.08.29-1.33.24-2.91.17-6.17.4-10.27.48l-.78-.13c.09,0,2.68,0,3.83-.08-1.71.12-6.29,0-8.16.26h2.88c-2.92.17-6.53.46-10.17.53,1.66.1.84,0,3.43,0-2.25-.15,9.3-.3,5.69-.41,2.66.12,4.59-.07,8.06,0-.11,0-1.23-.06,1.82-.13l.67-.07h0c.13,0,.14,0-.06,0-.73,0-1.32,0-1.56,0,1.51-.17,6.36-.32,8-.44,1.81,0-.76.08.23.1l2.45-.17c.25.1,4.82,0,.55.23l3.84-.12c2.26,0,5.37-.09,7.29-.2s4.57-.28,3-.14l6-.27.06,0c5.94-.18,12.22-.59,19-.61,2-.09,4.06-.2,7.41-.28l.66.08c2.57-.12,7.71-.16,8.81-.3,2.78.17,12.46-.36,17-.46l.17-.13c3.11-.1,6.09-.23,9.94-.41l-.24-.1c3.32-.2,8.55-.2,13.82-.39-.36.05-1.69.09-2.64.09,6.29,0,13.26-.62,19-.63,1.42-.09,2.45-.11,3.45-.11l-.35,0,.58,0h.31l4.38-.19.7.1.38,0c1.6,0,1.28-.1.43-.16l2.15-.14c1.3.15,4.27-.21,6.05-.06,1-.13,7.15-.32,8.75-.54,1.8,0,3.6-.07,5.22-.19l.78.13,4-.34c2.41,0,3.41,0,1,.23,5.77-.37,4.68-.22,9.59-.57l-.24.11c1.76-.06,4.56-.29,5.62-.24,3.93.06,19.43-.62,29.52-.78-2-.23,4.69,0,5.08-.26.59,0,2,0,.36.16,5.14-.24,7.73-.15,11.28-.46.59,0-1.1.14-.57.16s1.63-.11,2.17-.09-.75.08-1.56.14c5.25-.19,5.78-.42,6.16-.63a50.08,50.08,0,0,0,5.91-.25c.93,0,2.48.05-.79.18,1.84-.05,11.23-.28,11.41-.44.58,0,2.57-.07,3.05-.11l8.53-.27H333.1c.4-.06.81-.1,1.25-.13l.71,0a1.23,1.23,0,0,0,.77-.44,1.28,1.28,0,0,0,.27-.92ZM170.45,12h.86C169.37,12.12,169.91,12.07,170.45,12ZM47.39,82.12l5-.17C51.16,82,49.21,82.12,47.39,82.12Zm6-.19h.38Zm41.26-.79h.1C96.85,81.11,96.09,81.11,94.62,81.14Zm15.15-.88c-8.9.26-7.57.62-15,.71-2.94,0-.14-.26-.79-.34,3.86-.18,5.93-.11,8.54-.2l-3.22,0c1.23-.09,3.8-.2,5.2-.21h-1.29l18.25-.61c-1.75.19-5,.41-8.85.61C107.92,80.48,110.6,80.2,109.77,80.26Zm32-1.16c.14,0-.29-.07-.63-.09l3.83-.13C143.91,79,142.76,79.05,141.75,79.1Zm25.64-.62c-.47,0-7,0-8.55,0a2.84,2.84,0,0,1-.49,0l4.66-.15.1.19.55-.21,4.56-.15C168.23,78.26,168,78.4,167.38,78.48Zm22.35-.8-4.21.23c1.11-.13,3.08-.33,5.29-.54l7-.23c-2,.22-4.45.45-7,.59Zm38-1.22.29-.05C228.09,76.43,228.54,76.42,227.74,76.45ZM238.11,76c.28-.07.14-.14,0-.22l3.25-.11Zm69.11-2.32c-.63,0-.11-.08.75-.17l-1,.07a3.75,3.75,0,0,1-1,0l2.6-.09-.6.07,1.27-.09,1.17,0,2.05,0Z" transform="translate(-1.14 -6.66)"/><path class="cls-1" d="M67.12,82.13c.05,0,.45,0,0,.07l2.53-.11C68.3,82.14,67.81,82.13,67.12,82.13Z" transform="translate(-1.14 -6.66)"/><path class="cls-1" d="M67.13,82.2h0Z" transform="translate(-1.14 -6.66)"/><path class="cls-1" d="M60.59,82c-.58.16,1.53,0,3.63-.07a33.18,33.18,0,0,0-4,.08Z" transform="translate(-1.14 -6.66)"/><path class="cls-1" d="M58,82.07A11.4,11.4,0,0,0,59.78,82Z" transform="translate(-1.14 -6.66)"/><path class="cls-1" d="M84.62,81.49c-.94,0-.58.15-1.12.13C82.46,81.78,89.75,81.25,84.62,81.49Z" transform="translate(-1.14 -6.66)"/><polygon class="cls-1" points="61.46 74.96 62.17 75.06 63.28 74.92 61.46 74.96"/><path class="cls-1" d="M75.07,81.26a4.8,4.8,0,0,1-.85.07c1.95-.06,4.08-.11,4-.14Z" transform="translate(-1.14 -6.66)"/><path class="cls-1" d="M74.22,81.33c-1,0-2,.07-2.54.11Z" transform="translate(-1.14 -6.66)"/><path class="cls-1" d="M113.8,80c-.83.06-2.1.12-1.57.14l3.45-.15C116,79.89,115.08,79.89,113.8,80Z" transform="translate(-1.14 -6.66)"/><polygon class="cls-1" points="8.74 10.56 6.11 10.59 7.81 10.62 8.74 10.56"/><path class="cls-1" d="M4.85,17.58l-.62-.14-1.57.2C3.24,17.61,4.39,17.55,4.85,17.58Z" transform="translate(-1.14 -6.66)"/></svg>